#extradata 0:       34, 0xa7500cd4
#tb 0: 1/44100
#media_type 0: audio
#codec_id 0: flac
#sample_rate 0: 44100
#channel_layout_name 0: mono
0,          0,          0,     4096,     1320, 0x45220e92
0,       4096,       4096,     4096,     1251, 0x70521040
0,       8192,       8192,     4096,     1317, 0x6c5408ea
0,      12288,      12288,     4096,     1277, 0xa6e11330
0,      16384,      16384,     4096,     1328, 0x21371b83
0,      20480,      20480,     4096,     1264, 0x4358080b
0,      24576,      24576,     4096,     1279, 0xf63b158e
0,      28672,      28672,     4096,     1310, 0x1f77ff91
0,      32768,      32768,     4096,     1320, 0xea180f1a
0,      36864,      36864,     4096,     1251, 0x0b380fcb
0,      40960,      40960,     4096,     1231, 0x98611f9f, S=1, Skip Samples,       10, 0x047700bf
